<svg xmlns="http://www.w3.org/2000/svg" xmlns:xlink="http://www.w3.org/1999/xlink" width="1920" zoomAndPan="magnify" viewBox="0 0 1440 809.999993" height="1080" preserveAspectRatio="xMidYMid meet" version="1.0"><defs><clipPath id="e348b32cb3"><path d="M 216.148438 0 L 1170.148438 0 L 1170.148438 810 L 216.148438 810 Z M 216.148438 0 " clip-rule="nonzero"/></clipPath><clipPath id="10efe5feae"><path d="M 1170.082031 360.003906 L 1170.082031 341.070312 L 1151.253906 339.015625 C 1146.199219 338.492188 1091.929688 333.050781 1021.65625 343.597656 L 1021.65625 205.457031 L 997.824219 208.507812 C 958.441406 213.617188 921.902344 221.164062 888.152344 230.910156 C 851.453125 153.035156 790.769531 79.484375 706.410156 11.144531 L 693.125 0.335938 L 679.839844 11.144531 C 595.480469 79.484375 534.792969 153.035156 498.097656 230.910156 C 464.347656 221.164062 427.804688 213.617188 388.425781 208.507812 L 364.59375 205.457031 L 364.59375 343.597656 C 294.300781 333.050781 240.050781 338.492188 234.992188 339.015625 L 216.164062 341.070312 L 216.164062 360.003906 C 216.164062 515.386719 257.917969 633.65625 340.34375 711.636719 C 408.523438 776.121094 502.316406 809.765625 612.984375 809.765625 C 621.683594 809.765625 630.539062 809.503906 639.5 809.140625 L 669.816406 809.140625 L 663.800781 783.09375 C 648.824219 718.242188 624 561.535156 693.125 433.835938 C 762.246094 561.535156 737.421875 718.242188 722.445312 783.09375 L 716.433594 809.140625 L 746.75 809.140625 C 755.710938 809.503906 764.566406 809.765625 773.265625 809.765625 C 883.933594 809.765625 977.742188 776.121094 1045.90625 711.636719 C 1128.332031 633.65625 1170.082031 515.386719 1170.082031 360.003906 Z M 979.484375 253.816406 L 979.484375 351.671875 C 962.398438 355.628906 944.792969 360.578125 927.132812 366.855469 C 923.382812 334.011719 915.800781 301.742188 904.398438 270.152344 C 927.917969 263.5625 952.898438 258.035156 979.484375 253.816406 Z M 406.765625 253.816406 C 433.332031 258.035156 458.332031 263.582031 481.851562 270.171875 C 470.464844 301.757812 462.863281 334.027344 459.117188 366.871094 C 441.457031 360.597656 423.847656 355.644531 406.765625 351.6875 Z M 369.335938 680.953125 C 299.097656 614.566406 261.925781 513.332031 258.617188 379.878906 C 280.496094 379.199219 319.355469 379.566406 364.59375 387.09375 L 364.59375 512.371094 C 364.59375 608.167969 459.5 703.929688 552.976562 763.671875 C 491.230469 755.550781 424.214844 732.9375 369.335938 680.953125 Z M 406.765625 512.390625 L 406.765625 395.96875 C 423.117188 400.1875 439.816406 405.402344 456.484375 411.886719 C 455.648438 538.589844 510.371094 646.730469 558.453125 717.003906 C 475.941406 659.910156 406.765625 579.296875 406.765625 512.390625 Z M 609.390625 715.050781 C 564.570312 654.679688 504.355469 551.910156 499.039062 431.445312 C 542.324219 454.753906 582.980469 488.382812 613.664062 536.691406 C 601.757812 601.28125 603.535156 664.390625 609.390625 715.050781 Z M 627 482.699219 C 590.355469 436.988281 545.742188 405.402344 499.875 383.679688 C 502.664062 349.507812 510.058594 315.984375 522.070312 283.125 C 586.292969 306.746094 637.058594 340.496094 673.808594 384.253906 C 652.785156 415.582031 637.652344 448.949219 627 482.699219 Z M 693.125 342.5 C 653.480469 300.539062 601.808594 267.730469 538.628906 244.265625 C 570.847656 177.824219 622.414062 114.558594 693.125 54.867188 C 763.835938 114.558594 815.402344 177.824219 847.617188 244.265625 C 784.441406 267.730469 732.769531 300.523438 693.125 342.5 Z M 712.421875 384.253906 C 749.171875 340.496094 799.957031 306.746094 864.164062 283.125 C 876.191406 315.96875 883.566406 349.507812 886.355469 383.679688 C 840.488281 405.402344 795.878906 436.988281 759.230469 482.699219 C 748.597656 448.949219 733.464844 415.582031 712.421875 384.253906 Z M 772.585938 536.691406 C 803.269531 488.402344 843.921875 454.753906 887.210938 431.445312 C 881.894531 551.929688 821.679688 654.679688 776.855469 715.050781 C 782.714844 664.390625 784.492188 601.28125 772.585938 536.691406 Z M 929.765625 411.886719 C 946.429688 405.402344 963.132812 400.1875 979.484375 395.96875 L 979.484375 512.390625 C 979.484375 579.296875 910.308594 659.910156 827.796875 717.023438 C 875.878906 646.730469 930.601562 538.589844 929.765625 411.886719 Z M 1016.914062 680.953125 C 962.035156 732.9375 895.003906 755.566406 833.269531 763.671875 C 926.75 703.929688 1021.65625 608.183594 1021.65625 512.371094 L 1021.65625 387.09375 C 1066.894531 379.5625 1105.753906 379.179688 1127.632812 379.878906 C 1124.320312 513.332031 1087.152344 614.566406 1016.914062 680.953125 Z M 1016.914062 680.953125 " clip-rule="nonzero"/></clipPath></defs><g clip-path="url(#e348b32cb3)"><g clip-path="url(#10efe5feae)"><path fill="#ffffff" d="M 216.164062 0.335938 L 216.164062 809.765625 L 1170.082031 809.765625 L 1170.082031 0.335938 Z M 216.164062 0.335938 " fill-opacity="1" fill-rule="nonzero"/></g></g></svg>