<svg xmlns="http://www.w3.org/2000/svg" xmlns:xlink="http://www.w3.org/1999/xlink" width="500" zoomAndPan="magnify" viewBox="0 0 375 374.999991" height="500" preserveAspectRatio="xMidYMid meet" version="1.0"><defs><g/></defs><g fill="#000000" fill-opacity="1"><g transform="translate(132.852419, 283.665606)"><g><path d="M 57.84375 -176.546875 L 57.84375 -29.21875 L 137.1875 -29.21875 L 137.1875 0 L 22.9375 0 L 22.9375 -176.546875 Z M 57.84375 -176.546875 "/></g></g></g><g fill="#000000" fill-opacity="1"><g transform="translate(209.673096, 147.446035)"><g><path d="M -55.21875 74.015625 L -55.21875 27.90625 L -135.6875 27.90625 L -135.6875 0 L -21.90625 0 L -21.90625 168.546875 L -133.84375 168.546875 L -133.84375 140.65625 L -55.21875 140.65625 L -55.21875 101.21875 L -123.9375 101.21875 L -123.9375 74.015625 Z M -55.21875 74.015625 "/></g></g></g><g fill="#000000" fill-opacity="1"><g transform="translate(183.037918, 239.601055)"><g><path d="M 57.84375 -176.546875 L 57.84375 -29.21875 L 137.1875 -29.21875 L 137.1875 0 L 22.9375 0 L 22.9375 -176.546875 Z M 57.84375 -176.546875 "/></g></g></g></svg>